# xmcd
#
# Track frame offsets:
#	150
#	22754
#	46112
#	60353
#	80474
#	117149
#	133886
#	159514
#	178291
#	200295
#	226396
#	245893
#
# Disc length: 3495 seconds
#
# Revision: 1
# Processed by: cddbd v1.5.2PL0 Copyright (c) Steve Scherf et al.
# Submitted via: audiograbber 1.83.01
#
DISCID=980da50c
DTITLE=D.A. and the Hitmen - Lucky Dog
DYEAR=1900
DGENRE=Blues
TTITLE0=It's A Beautiful Day
TTITLE1=Lucky Dog
TTITLE2=Bring It On
TTITLE3=Stop The Rain
TTITLE4=Mrs. Sunshine
TTITLE5=I'm At It Again
TTITLE6=Empty Lives
TTITLE7=Hohner For You Baby
TTITLE8=Voodoo Queen
TTITLE9=Single Life
TTITLE10=Judgement Day
TTITLE11=Up In Flames
EXTD=
EXTT0=
EXTT1=
EXTT2=
EXTT3=
EXTT4=
EXTT5=
EXTT6=
EXTT7=
EXTT8=
EXTT9=
EXTT10=
EXTT11=
PLAYORDER=
